<svg xmlns="http://www.w3.org/2000/svg" version="1.1" xmlns:xlink="http://www.w3.org/1999/xlink" width="512" height="512" x="0" y="0" viewBox="0 0 800 800" style="enable-background:new 0 0 512 512" xml:space="preserve" class="hovered-paths"><g transform="matrix(1,0,0,1,0,0)"><linearGradient id="a" x1="66.667" x2="733.333" y1="400" y2="400" gradientUnits="userSpaceOnUse"><stop stop-opacity="1" stop-color="#c615de" offset="0"></stop><stop stop-opacity="1" stop-color="#4a2de9" offset="1"></stop></linearGradient><path fill="url(#a)" fill-rule="evenodd" d="M704 229.3C674.8 200 627.6 200 533.3 200H266.7c-94.3 0-141.4 0-170.7 29.3S66.7 305.7 66.7 400s0 141.4 29.3 170.7c16.5 16.5 38.6 23.7 71.6 26.8-.9-24.1-.9-85.8-.9-114.2-9.2 0-16.7-7.5-16.7-16.7s7.5-16.7 16.7-16.7h466.7c9.2 0 16.7 7.5 16.7 16.7s-7.5 16.7-16.7 16.7c0 28.4 0 90.1-.9 114.2 33-3.1 55.2-10.4 71.6-26.8 29.3-29.3 29.3-76.4 29.3-170.7-.1-94.3-.1-141.4-29.4-170.7zm-404 129H200c-13.8 0-25-11.2-25-25s11.2-25 25-25h100c13.8 0 25 11.2 25 25s-11.2 25-25 25zm266.7 8.4c-18.4 0-33.3-14.9-33.3-33.3s14.9-33.3 33.3-33.3S600 315 600 333.4c0 18.3-14.9 33.3-33.3 33.3zm-31-200c22.6 0 43.2 0 61.8.5-3.2-32.8-10.4-54.8-26.8-71.2-29.3-29.3-76.4-29.3-170.7-29.3s-141.4 0-170.7 29.3c-16.4 16.4-23.6 38.4-26.8 71.2 18.6-.5 39.2-.5 61.8-.5zM229.3 704c29.3 29.3 76.4 29.3 170.7 29.3s141.4 0 170.7-29.3C600 674.8 600 577.6 600 483.3H200c0 94.3 0 191.5 29.3 220.7zM300 533.3h200c13.8 0 25 11.2 25 25s-11.2 25-25 25H300c-13.8 0-25-11.2-25-25s11.2-25 25-25zm0 100h133.3c13.8 0 25 11.2 25 25s-11.2 25-25 25H300c-13.8 0-25-11.2-25-25s11.2-25 25-25z" clip-rule="evenodd" opacity="1" data-original="url(#a)" class="hovered-path"></path></g></svg>