<svg xmlns="http://www.w3.org/2000/svg" viewBox="0 0 512 512" width="64" height="64">
  <!-- Updated Gradient Definition with an extra stop for smoothness -->
  <defs>
    <linearGradient id="gradient" x1="0%" y1="0%" x2="100%" y2="100%">
      <stop offset="0%" style="stop-color:#6C63FF; stop-opacity:1" />
      <stop offset="50%" style="stop-color:#8A2BE2; stop-opacity:1" />
      <stop offset="100%" style="stop-color:#3B82F6; stop-opacity:1" />
    </linearGradient>
  </defs>
  <!-- Transparent Background (removed white circle) -->
  <!-- Printer Icon -->
  <g transform="scale(0.8) translate(64, 64)">
    <rect x="153.361" y="65.14" fill="white" width="205.278" height="95.191" />
    <path fill="url(#gradient)" d="M512,144.296v172.838c0,19.889-16.176,36.066-36.066,36.066h-95.582v104.517
      c0,5.993-4.864,10.857-10.857,10.857H142.504c-5.993,0-10.857-4.864-10.857-10.857V353.2H36.066C16.176,353.2,0,337.023,0,317.134
      V144.296c0-19.889,16.176-36.066,36.066-36.066h95.582V54.283c0-5.993,4.864-10.857,10.857-10.857h226.991
      c5.993,0,10.857,4.864,10.857,10.857v53.947h95.582C495.824,108.23,512,124.406,512,144.296z M490.287,317.134V144.296
      c0-7.915-6.438-14.353-14.353-14.353h-47.976v41.244c0,5.993-4.864,10.857-10.857,10.857H94.898
      c-5.993,0-10.857-4.864-10.857-10.857v-41.244H36.066c-7.915,0-14.353,6.438-14.353,14.353v172.838
      c0,7.915,6.438,14.353,14.353,14.353h95.582v-27.608h-19.803c-5.993,0-10.857-4.864-10.857-10.857s4.864-10.857,10.857-10.857
      h30.659h226.991h30.659c5.993,0,10.857,4.864,10.857,10.857s-4.864,10.857-10.857,10.857h-19.803v27.608h95.582
      C483.849,331.486,490.287,325.048,490.287,317.134z M406.245,160.331v-30.388h-25.893v30.388H406.245z M358.639,446.86V303.878
      H153.361V446.86L358.639,446.86L358.639,446.86z M358.639,160.331V65.14H153.361v95.191H358.639z M131.648,160.331v-30.388h-25.893
      v30.388H131.648z" />
    <path fill="url(#gradient)" d="M490.287,144.296v172.838c0,7.915-6.438,14.353-14.353,14.353h-95.582v-27.608h19.803
      c5.993,0,10.857-4.864,10.857-10.857s-4.864-10.857-10.857-10.857h-30.659H142.504h-30.659c-5.993,0-10.857,4.864-10.857,10.857
      s4.864,10.857,10.857,10.857h19.803v27.608H36.066c-7.915,0-14.353-6.438-14.353-14.353V144.296c0-7.915,6.438-14.353,14.353-14.353
      h47.976v41.244c0,5.993,4.864,10.857,10.857,10.857h322.204c5.993,0,10.857-4.864,10.857-10.857v-41.244h47.976
      C483.849,129.943,490.287,136.381,490.287,144.296z M82.391,219.261c0-7.513-6.08-13.603-13.593-13.603s-13.603,6.091-13.603,13.603
      s6.091,13.603,13.603,13.603C76.311,232.864,82.391,226.774,82.391,219.261z" />
  </g>
</svg>
